<svg width="369" height="244" viewBox="0 0 369 244" fill="none" xmlns="http://www.w3.org/2000/svg">
<rect x="0.496933" y="0.269936" width="86.2212" height="86.2212" fill="#FF0000"/>
<path d="M184.546 0.269936L234.805 87.3202H134.288L184.546 0.269936Z" fill="#FFFF00"/>
<circle cx="325.484" cy="43.3805" r="43.1106" fill="#00FF00"/>
<path d="M3.81313 243.749C211.076 145.921 83.4019 225.51 191.178 243.749H3.81313Z" fill="#FF9900"/>
<ellipse cx="48.5818" cy="141.208" rx="48.0849" ry="18.2391" fill="#00FFFF"/>
<ellipse cx="204.251" cy="143.895" rx="48.0849" ry="18.2391" transform="rotate(-26.0556 204.251 143.895)" fill="#FF00FF"/>
<path fill-rule="evenodd" clip-rule="evenodd" d="M334.356 156.265L312.22 195.926L368.595 195.926C368.595 219.735 343.355 239.036 312.22 239.036C281.084 239.036 255.844 219.735 255.844 195.926C255.844 172.116 281.084 152.815 312.22 152.815C320.078 152.815 327.56 154.044 334.356 156.265Z" fill="#0000FF"/>
</svg>
